[Header]
FileType HTR
DataType HTRS
FileVersion 1
NumSegments 64
NumFrames 3
DataFrameRate 24
EulerRotationOrder ZYX
CalibrationUnits mm
RotationUnits Degrees
GlobalAxisofGravity Y
BoneLengthAxis Y
ScaleFactor 1.0
[SegmentNames&Hierarchy]
Hips	GLOBAL
Spine	Hips
Spine1	Spine
Spine2	Spine1
Neck	Spine2
Head	Neck
LeftEye	Head
RightEye	Head
LeftShoulder	Spine2
LeftArm	LeftShoulder
LeftForeArm	LeftArm
LeftHand	LeftForeArm
LeftHandThumb1	LeftHand
LeftHandThumb2	LeftHandThumb1
LeftHandThumb3	LeftHandThumb2
LeftHandThumb4	LeftHandThumb3
LeftHandIndex1	LeftHand
LeftHandIndex2	LeftHandIndex1
LeftHandIndex3	LeftHandIndex2
LeftHandIndex4	LeftHandIndex3
LeftHandMiddle1	LeftHand
LeftHandMiddle2	LeftHandMiddle1
LeftHandMiddle3	LeftHandMiddle2
LeftHandMiddle4	LeftHandMiddle3
LeftHandRing1	LeftHand
LeftHandRing2	LeftHandRing1
LeftHandRing3	LeftHandRing2
LeftHandRing4	LeftHandRing3
LeftHandPinky1	LeftHand
LeftHandPinky2	LeftHandPinky1
LeftHandPinky3	LeftHandPinky2
LeftHandPinky4	LeftHandPinky3
RightShoulder	Spine2
RightArm	RightShoulder
RightForeArm	RightArm
RightHand	RightForeArm
RightHandPinky1	RightHand
RightHandPinky2	RightHandPinky1
RightHandPinky3	RightHandPinky2
RightHandPinky4	RightHandPinky3
RightHandRing1	RightHand
RightHandRing2	RightHandRing1
RightHandRing3	RightHandRing2
RightHandRing4	RightHandRing3
RightHandMiddle1	RightHand
RightHandMiddle2	RightHandMiddle1
RightHandMiddle3	RightHandMiddle2
RightHandMiddle4	RightHandMiddle3
RightHandIndex1	RightHand
RightHandIndex2	RightHandIndex1
RightHandIndex3	RightHandIndex2
RightHandIndex4	RightHandIndex3
RightHandThumb1	RightHand
RightHandThumb2	RightHandThumb1
RightHandThumb3	RightHandThumb2
RightHandThumb4	RightHandThumb3
LeftUpLeg	Hips
LeftLeg	LeftUpLeg
LeftFoot	LeftLeg
LeftToeBase	LeftFoot
RightUpLeg	Hips
RightLeg	RightUpLeg
RightFoot	RightLeg
RightToeBase	RightFoot
[BasePosition]
Hips	0	0	0	0	0	0	1
Spine	0	0	0	0	0	0	1
Spine1	0	0	0	0	0	0	1
Spine2	0	0	0	0	0	0	1
Neck	0	0	0	0	0	0	1
Head	0	0	0	0	0	0	1
LeftEye	0	0	0	0	0	0	1
RightEye	0	0	0	0	0	0	1
LeftShoulder	0	0	0	0	0	0	1
LeftArm	0	0	0	0	0	0	1
LeftForeArm	0	0	0	0	0	0	1
LeftHand	0	0	0	0	0	0	1
LeftHandThumb1	0	0	0	0	0	0	1
LeftHandThumb2	0	0	0	0	0	0	1
LeftHandThumb3	0	0	0	0	0	0	1
LeftHandThumb4	0	0	0	0	0	0	1
LeftHandIndex1	0	0	0	0	0	0	1
LeftHandIndex2	0	0	0	0	0	0	1
LeftHandIndex3	0	0	0	0	0	0	1
LeftHandIndex4	0	0	0	0	0	0	1
LeftHandMiddle1	0	0	0	0	0	0	1
LeftHandMiddle2	0	0	0	0	0	0	1
LeftHandMiddle3	0	0	0	0	0	0	1
LeftHandMiddle4	0	0	0	0	0	0	1
LeftHandRing1	0	0	0	0	0	0	1
LeftHandRing2	0	0	0	0	0	0	1
LeftHandRing3	0	0	0	0	0	0	1
LeftHandRing4	0	0	0	0	0	0	1
LeftHandPinky1	0	0	0	0	0	0	1
LeftHandPinky2	0	0	0	0	0	0	1
LeftHandPinky3	0	0	0	0	0	0	1
LeftHandPinky4	0	0	0	0	0	0	1
RightShoulder	0	0	0	0	0	0	1
RightArm	0	0	0	0	0	0	1
RightForeArm	0	0	0	0	0	0	1
RightHand	0	0	0	0	0	0	1
RightHandPinky1	0	0	0	0	0	0	1
RightHandPinky2	0	0	0	0	0	0	1
RightHandPinky3	0	0	0	0	0	0	1
RightHandPinky4	0	0	0	0	0	0	1
RightHandRing1	0	0	0	0	0	0	1
RightHandRing2	0	0	0	0	0	0	1
RightHandRing3	0	0	0	0	0	0	1
RightHandRing4	0	0	0	0	0	0	1
RightHandMiddle1	0	0	0	0	0	0	1
RightHandMiddle2	0	0	0	0	0	0	1
RightHandMiddle3	0	0	0	0	0	0	1
RightHandMiddle4	0	0	0	0	0	0	1
RightHandIndex1	0	0	0	0	0	0	1
RightHandIndex2	0	0	0	0	0	0	1
RightHandIndex3	0	0	0	0	0	0	1
RightHandIndex4	0	0	0	0	0	0	1
RightHandThumb1	0	0	0	0	0	0	1
RightHandThumb2	0	0	0	0	0	0	1
RightHandThumb3	0	0	0	0	0	0	1
RightHandThumb4	0	0	0	0	0	0	1
LeftUpLeg	0	0	0	0	0	0	1
LeftLeg	0	0	0	0	0	0	1
LeftFoot	0	0	0	0	0	0	1
LeftToeBase	0	0	0	0	0	0	1
RightUpLeg	0	0	0	0	0	0	1
RightLeg	0	0	0	0	0	0	1
RightFoot	0	0	0	0	0	0	1
RightToeBase	0	0	0	0	0	0	1
[Hips]
7	-36.14804077	1030.199463	-54.59598541	-2.73811388	18.75115585	-2.353723526	1.0
8	-42.00112915	1029.980347	-65.55987549	-3.018424034	21.83346939	-2.293703079	1.0
9	-43.01713943	1028.981323	-75.86212921	-3.702626467	24.57027245	-2.623692036	1.0
[Spine]
7	0	101.8159943	1.315000057	3.937501431	2.895422459	1.5779953	1.0
8	0	101.8159943	1.315000057	3.792948484	3.078260899	1.208909035	1.0
9	0	101.8159943	1.315000057	3.638886929	3.394968033	1.43780303	1.0
[Spine1]
7	0	100.8349991	-10.00800037	1.855010152	1.56504941	3.546985865	1.0
8	0	100.8349991	-10.00800037	1.767923594	1.741323233	4.049877644	1.0
9	0	100.8349991	-10.00800037	1.630460262	2.072038174	4.528241158	1.0
[Spine2]
7	0	91	-13.73399925	1.770223618	1.448074579	1.748530388	1.0
8	0	91	-13.73399925	1.666814208	1.57600975	1.780869961	1.0
9	0	91	-13.73399925	1.504917383	1.853989959	1.802504539	1.0
[Neck]
7	0	166.7169952	-25.16200066	7.922632217	9.071979523	-1.431087494	1.0
8	0	166.7169952	-25.16200066	8.011011124	9.332848549	-1.432659864	1.0
9	0	166.7169952	-25.16200066	8.07423687	9.218909264	-1.467982769	1.0
[Head]
7	0	96.17900085	16.84999847	-3.399186134	25.21945	-7.75183773	1.0
8	0	96.17900085	16.84999847	-3.047228813	26.70155334	-8.469270706	1.0
9	0	96.17900085	16.84999847	-2.951387882	27.02091217	-9.004693985	1.0
[LeftEye]
7	30.6760006	64.09500122	92.83599854	0	0	0	1.0
8	30.6760006	64.09500122	92.83599854	0	0	0	1.0
9	30.6760006	64.09500122	92.83599854	0	0	0	1.0
[RightEye]
7	-30.6760006	64.09500122	92.83499908	0	0	0	1.0
8	-30.6760006	64.09500122	92.83499908	0	0	0	1.0
9	-30.6760006	64.09500122	92.83499908	0	0	0	1.0
[LeftShoulder]
7	45.70400238	109.4599991	-26.28000069	5.262426376	-16.83992386	-16.46837616	1.0
8	45.70400238	109.4599991	-26.28000069	5.329043865	-16.63570404	-17.12499619	1.0
9	45.70400238	109.4599991	-26.28000069	5.464317799	-16.0155983	-17.85322189	1.0
[LeftArm]
7	105.923996	-5.24600029	-22.32099915	13.77560329	-8.174361229	-59.82654572	1.0
8	105.923996	-5.24600029	-22.32099915	13.26386261	-5.881551266	-57.99660492	1.0
9	105.923996	-5.24600029	-22.32099915	13.56760788	-3.234371662	-57.13298798	1.0
[LeftForeArm]
7	278.414978	-0.0009999999311	0	-2.742048309e-06	-14.32523918	-0.000180285715	1.0
8	278.414978	-0.0009999999311	0	-4.316957074e-06	-18.24360847	-0.0001769735973	1.0
9	278.414978	-0.0009999999311	0	-3.53051928e-06	-20.97560501	-0.0001926565747	1.0
[LeftHand]
7	283.2879944	0	0	-22.04107475	-2.104649544	11.37069321	1.0
8	283.2879944	0	0	-22.08336067	-1.97766161	12.83305073	1.0
9	283.2879944	0	0	-22.36039925	-1.885738492	13.26955032	1.0
[LeftHandThumb1]
7	24.6609993	-15.75	26.8239994	-0.4889881611	2.201389551	4.818526268	1.0
8	24.6609993	-15.75	26.8239994	-0.4889881611	2.201389551	4.818526268	1.0
9	24.6609993	-15.75	26.8239994	-0.4889881611	2.201389551	4.818526268	1.0
[LeftHandThumb2]
7	32.29800034	-18.64699936	18.64699936	21.35853386	19.73243904	23.67894554	1.0
8	32.29800034	-18.64699936	18.64699936	21.24300003	19.42309952	23.5228672	1.0
9	32.29800034	-18.64699936	18.64699936	21.09850311	19.02168655	23.29982376	1.0
[LeftHandThumb3]
7	26.52600098	-15.31499958	15.31499958	-12.08699036	3.763038158	8.74229908	1.0
8	26.52600098	-15.31499958	15.31499958	-11.9456377	3.677270651	8.765017509	1.0
9	26.52600098	-15.31499958	15.31499958	-12.12938309	3.901935816	8.605955124	1.0
[LeftHandThumb4]
7	19.54599953	-11.28499985	11.28499985	0	0	0	1.0
8	19.54599953	-11.28499985	11.28499985	0	0	0	1.0
9	19.54599953	-11.28499985	11.28499985	0	0	0	1.0
[LeftHandIndex1]
7	91.09299469	-5.170999527	22.60099792	0.2138220072	-0.4608076513	-9.204587936	1.0
8	91.09299469	-5.170999527	22.60099792	0.220882982	-0.4489749074	-9.189704895	1.0
9	91.09299469	-5.170999527	22.60099792	0.2105033398	-0.5250532627	-8.949995041	1.0
[LeftHandIndex2]
7	36.76399994	0	0	-0.2673234344	1.747162819	-17.39690208	1.0
8	36.76399994	0	0	-0.2673200071	1.747161269	-17.3969059	1.0
9	36.76399994	0	0	-0.2673204839	1.747158051	-17.39689636	1.0
[LeftHandIndex3]
7	28.83100128	0	0	-0.05772319436	0.8193997145	-8.0587883	1.0
8	28.83100128	0	0	-0.05772068352	0.8194019794	-8.058777809	1.0
9	28.83100128	0	0	-0.05772053823	0.8194034696	-8.05878067	1.0
[LeftHandIndex4]
7	23.92700005	0	0	0	0	0	1.0
8	23.92700005	0	0	0	0	0	1.0
9	23.92700005	0	0	0	0	0	1.0
[LeftHandMiddle1]
7	95.33399963	0	0	-0.9083426595	3.186518431	-17.36457825	1.0
8	95.33399963	0	0	-0.9069675803	3.269434452	-17.34313583	1.0
9	95.33399963	0	0	-0.8888759017	3.277851343	-17.08252144	1.0
[LeftHandMiddle2]
7	36.98199844	0	0	-0.2714011669	1.760120869	-17.5301857	1.0
8	36.98199844	0	0	-0.2711841166	1.759430647	-17.52310944	1.0
9	36.98199844	0	0	-0.2706860006	1.75783968	-17.50675011	1.0
[LeftHandMiddle3]
7	29.50900078	0	0	-0.3031666875	1.857621312	-18.53630257	1.0
8	29.50900078	0	0	-0.3029325306	1.856925368	-18.52906609	1.0
9	29.50900078	0	0	-0.3023985028	1.855338931	-18.51265144	1.0
[LeftHandMiddle4]
7	28.3390007	0	0	0	0	0	1.0
8	28.3390007	0	0	0	0	0	1.0
9	28.3390007	0	0	0	0	0	1.0
[LeftHandRing1]
7	91.04499817	-0.4390000105	-18.65100098	-1.278482676	3.815141439	-22.38726044	1.0
8	91.04499817	-0.4390000105	-18.65100098	-1.277628779	3.809736729	-22.37617111	1.0
9	91.04499817	-0.4390000105	-18.65100098	-1.266608	3.736457586	-22.23376846	1.0
[LeftHandRing2]
7	31.54000092	0	0	-0.3872543573	2.091620445	-20.97644043	1.0
8	31.54000092	0	0	-0.3867622316	2.090336084	-20.96296883	1.0
9	31.54000092	0	0	-0.3861823082	2.088819504	-20.94699669	1.0
[LeftHandRing3]
7	29.37700081	0	0	-0.2837678194	1.798760772	-17.9282856	1.0
8	29.37700081	0	0	-0.2833463252	1.797452331	-17.91479683	1.0
9	29.37700081	0	0	-0.2828479409	1.79592514	-17.89904785	1.0
[LeftHandRing4]
7	26.47500038	0	0	0	0	0	1.0
8	26.47500038	0	0	0	0	0	1.0
9	26.47500038	0	0	0	0	0	1.0
[LeftHandPinky1]
7	80.77799988	-4.887000084	-38.06099701	-1.713014603	5.948198318	-27.83938217	1.0
8	80.77799988	-4.887000084	-38.06099701	-1.70663476	6.003051281	-27.78189468	1.0
9	80.77799988	-4.887000084	-38.06099701	-1.695090294	6.079999447	-27.6385994	1.0
[LeftHandPinky2]
7	36	0	0	-0.2680746913	1.749546409	-17.42146873	1.0
8	36	0	0	-0.2677889764	1.748636603	-17.41211891	1.0
9	36	0	0	-0.2672526836	1.746926785	-17.39454079	1.0
[LeftHandPinky3]
7	21.14200211	0	0	-0.2413500994	1.662019968	-16.5236454	1.0
8	21.14200211	0	0	-0.2410853505	1.66112268	-16.51446152	1.0
9	21.14200211	0	0	-0.2405898571	1.659447074	-16.4973526	1.0
[LeftHandPinky4]
7	19.75699997	0	0	0	0	0	1.0
8	19.75699997	0	0	0	0	0	1.0
9	19.75699997	0	0	0	0	0	1.0
[RightShoulder]
7	-45.70000076	109.4620056	-26.28000069	5.058322906	14.18411922	14.91941452	1.0
8	-45.70000076	109.4620056	-26.28000069	5.00740099	13.97290897	15.00985336	1.0
9	-45.70000076	109.4620056	-26.28000069	4.942355156	13.72301865	15.04712582	1.0
[RightArm]
7	-105.9280014	-5.248000145	-22.32099915	29.71634293	-3.83101511	55.86393356	1.0
8	-105.9280014	-5.248000145	-22.32099915	29.62989044	-5.185856342	54.22023392	1.0
9	-105.9280014	-5.248000145	-22.32099915	29.66165352	-6.762698174	52.47980118	1.0
[RightForeArm]
7	-278.414978	0	0	-9.977413356e-06	11.02857399	-6.162702448e-06	1.0
8	-278.414978	0	0	-8.936822269e-06	12.21047688	-9.996135759e-07	1.0
9	-278.414978	0	0	-5.573329872e-06	13.35331345	-5.624716323e-06	1.0
[RightHand]
7	-283.2879944	0	0.0009999999311	-24.08205032	-4.828329563	5.909609318	1.0
8	-283.2879944	0	0.0009999999311	-24.84404564	-6.120415211	6.067425728	1.0
9	-283.2879944	0	0.0009999999311	-25.68592834	-7.0495224	6.242698193	1.0
[RightHandPinky1]
7	-80.76699829	-4.885000229	-38.06000137	-1.674387097	-4.057400227	27.19719696	1.0
8	-80.76699829	-4.885000229	-38.06000137	-1.691218853	-4.011198997	27.30257416	1.0
9	-80.76699829	-4.885000229	-38.06000137	-1.651450276	-4.140986443	27.09216118	1.0
[RightHandPinky2]
7	-36	0	0.0009999999311	-0.2157625556	-1.398395896	17.56126785	1.0
8	-36	0	0.0009999999311	-0.2142596543	-1.393654108	17.49958038	1.0
9	-36	0	0.0009999999311	-0.2147805095	-1.395300865	17.52092361	1.0
[RightHandPinky3]
7	-21.14200211	0	0	-0.194431752	-1.32904458	16.64518738	1.0
8	-21.14200211	0	0	-0.1929695159	-1.324169755	16.58233833	1.0
9	-21.14200211	0	0	-0.1935362667	-1.326071858	16.60681534	1.0
[RightHandPinky4]
7	-19.75699997	0	0	0	0	0	1.0
8	-19.75699997	0	0	0	0	0	1.0
9	-19.75699997	0	0	0	0	0	1.0
[RightHandRing1]
7	-91.03599548	-0.4390000105	-18.65100098	-1.079822421	-2.706943989	21.00422478	1.0
8	-91.03599548	-0.4390000105	-18.65100098	-1.084883213	-2.669788122	21.08106232	1.0
9	-91.03599548	-0.4390000105	-18.65100098	-1.078057885	-2.695299625	20.97761726	1.0
[RightHandRing2]
7	-31.54000092	0	0	-0.3062888682	-1.65768826	20.93531418	1.0
8	-31.54000092	0	0	-0.3059063554	-1.656693816	20.92217445	1.0
9	-31.54000092	0	0	-0.3057018518	-1.656169057	20.91511536	1.0
[RightHandRing3]
7	-29.37700081	0	0	-0.2242037058	-1.424800515	17.88407326	1.0
8	-29.37700081	0	0	-0.2238772362	-1.4237988	17.87097168	1.0
9	-29.37700081	0	0	-0.2236965299	-1.423250675	17.86386871	1.0
[RightHandRing4]
7	-26.47500038	0	0	0	0	0	1.0
8	-26.47500038	0	0	0	0	0	1.0
9	-26.47500038	0	0	0	0	0	1.0
[RightHandMiddle1]
7	-95.32500458	0	0	-0.7286854982	-2.138021946	15.46522903	1.0
8	-95.32500458	0	0	-0.7305753231	-2.12516737	15.49692154	1.0
9	-95.32500458	0	0	-0.7180101275	-2.156653643	15.28593636	1.0
[RightHandMiddle2]
7	-36.98199844	0	0	-0.2156172097	-1.397941232	17.5356369	1.0
8	-36.98199844	0	0	-0.2158661187	-1.398724794	17.54592323	1.0
9	-36.98199844	0	0	-0.2154037356	-1.397258282	17.52688599	1.0
[RightHandMiddle3]
7	-29.50900078	0	0	-0.2409281433	-1.477650642	18.54494286	1.0
8	-29.50900078	0	0	-0.2411964238	-1.478440762	18.55532646	1.0
9	-29.50900078	0	0	-0.240698725	-1.476957679	18.53599167	1.0
[RightHandMiddle4]
7	-28.3390007	0	0.0009999999311	0	0	0	1.0
8	-28.3390007	0	0.0009999999311	0	0	0	1.0
9	-28.3390007	0	0.0009999999311	0	0	0	1.0
[RightHandIndex1]
7	-91.08300018	-5.167999744	22.60099792	0.1037446707	1.311242461	7.385327816	1.0
8	-91.08300018	-5.167999744	22.60099792	0.08339533955	1.33002317	7.492513657	1.0
9	-91.08300018	-5.167999744	22.60099792	0.1121222377	1.27144599	7.533736706	1.0
[RightHandIndex2]
7	-36.76399994	0	0	-0.2122479528	-1.387263536	17.39739037	1.0
8	-36.76399994	0	0	-0.2114421874	-1.384696126	17.36410713	1.0
9	-36.76399994	0	0	-0.2116030157	-1.38518548	17.37050247	1.0
[RightHandIndex3]
7	-28.83100128	0	0	-0.04565012455	-0.649289608	8.043231964	1.0
8	-28.83100128	0	0	-0.04526930675	-0.6466287971	8.009994507	1.0
9	-28.83100128	0	0	-0.04534132034	-0.6471474171	8.016370773	1.0
[RightHandIndex4]
7	-23.92700005	0	0	0	0	0	1.0
8	-23.92700005	0	0	0	0	0	1.0
9	-23.92700005	0	0	0	0	0	1.0
[RightHandThumb1]
7	-24.64799881	-15.72700024	26.82600021	-1.658465981	-0.2891423702	-4.221325874	1.0
8	-24.64799881	-15.72700024	26.82600021	-1.658465981	-0.2891423702	-4.221325874	1.0
9	-24.64799881	-15.72700024	26.82600021	-1.658465981	-0.2891423702	-4.221325874	1.0
[RightHandThumb2]
7	-32.29800034	-18.64699936	18.64699936	22.14446259	-23.67114258	-24.07962799	1.0
8	-32.29800034	-18.64699936	18.64699936	21.941679	-23.26957321	-23.95069122	1.0
9	-32.29800034	-18.64699936	18.64699936	22.03269958	-23.20008278	-23.94834518	1.0
[RightHandThumb3]
7	-26.52600098	-15.31399918	15.31399918	-14.49315262	-6.731621742	-11.36924839	1.0
8	-26.52600098	-15.31399918	15.31399918	-14.49326324	-6.731321335	-11.36925793	1.0
9	-26.52600098	-15.31399918	15.31399918	-14.49438477	-6.730960369	-11.36853218	1.0
[RightHandThumb4]
7	-19.54599953	-11.28499985	11.28499985	0	0	0	1.0
8	-19.54599953	-11.28499985	11.28499985	0	0	0	1.0
9	-19.54599953	-11.28499985	11.28499985	0	0	0	1.0
[LeftUpLeg]
7	82.07800293	-67.51699829	-15.99599934	-15.21982574	35.98176956	10.95310783	1.0
8	82.07800293	-67.51699829	-15.99599934	-12.77559376	35.87308502	11.55842781	1.0
9	82.07800293	-67.51699829	-15.99599934	-9.906933784	36.53050995	11.06875706	1.0
[LeftLeg]
7	0	-443.7049866	2.845999956	27.94969177	6.894583225	-1.376749516	1.0
8	0	-443.7049866	2.845999956	28.36995697	7.965008736	-1.173207879	1.0
9	0	-443.7049866	2.845999956	25.29771423	8.244002342	0.8179115653	1.0
[LeftFoot]
7	0	-444.2789917	-29.8219986	-0.4472571611	28.48468399	-3.830263615	1.0
8	0	-444.2789917	-29.8219986	-5.480513096	29.60697174	-4.670813084	1.0
9	0	-444.2789917	-29.8219986	-9.090735435	29.01079941	-6.467844486	1.0
[LeftToeBase]
7	0	-87.28699493	107.1060028	-5.739225388	-1.424034144e-05	7.447077905e-07	1.0
8	0	-87.28699493	107.1060028	-6.776096821	-2.041529115e-05	4.42074878e-07	1.0
9	0	-87.28699493	107.1060028	-7.66587162	-1.01600308e-05	9.72380235e-07	1.0
[RightUpLeg]
7	-82.07800293	-67.51699829	-15.99599934	-7.762317657	-35.41946793	5.364263058	1.0
8	-82.07800293	-67.51699829	-15.99599934	-8.432184219	-38.46539307	5.65511179	1.0
9	-82.07800293	-67.51699829	-15.99599934	-8.705255508	-41.57754135	5.684772015	1.0
[RightLeg]
7	0	-443.7049866	2.861999989	13.04137135	-8.974531174	-5.391403198	1.0
8	0	-443.7049866	2.861999989	13.19276905	-8.997239113	-5.425812244	1.0
9	0	-443.7049866	2.861999989	13.55966187	-9.014453888	-5.49174118	1.0
[RightFoot]
7	0	-444.2770081	-29.83799934	-5.335370064	-1.496251345	0.6064708233	1.0
8	0	-444.2770081	-29.83799934	-5.177689552	-1.528272748	0.1581993103	1.0
9	0	-444.2770081	-29.83799934	-5.144775391	-1.191152453	0.06525616348	1.0
[RightToeBase]
7	0	-87.28699493	107.1060028	-7.282876968	2.38507846e-06	-1.422877972e-06	1.0
8	0	-87.28699493	107.1060028	-7.282877922	-5.131764283e-06	-1.648625016e-06	1.0
9	0	-87.28699493	107.1060028	-7.276582718	7.434316558e-06	-1.654657694e-06	1.0
[EndOfFile]
